<mxfile host="app.diagrams.net" agent="Mozilla/5.0 (Windows NT 10.0; Win64; x64) AppleWebKit/537.36 (KHTML, like Gecko) Chrome/129.0.0.0 Safari/537.36" version="24.7.17">
  <diagram name="Halaman-1" id="Y9AolwvZBnAyUHMvJlSv">
    <mxGraphModel dx="993" dy="558" grid="1" gridSize="10" guides="1" tooltips="1" connect="1" arrows="1" fold="1" page="1" pageScale="1" pageWidth="827" pageHeight="1169" math="0" shadow="0">
      <root>
        <mxCell id="0" />
        <mxCell id="1" parent="0" />
        <mxCell id="kuNX_iD7RCXfwzJ7GgUc-3" value="START" style="rounded=1;whiteSpace=wrap;html=1;fontStyle=4;fontFamily=Verdana;" vertex="1" parent="1">
          <mxGeometry x="367" y="20" width="120" height="60" as="geometry" />
        </mxCell>
        <mxCell id="kuNX_iD7RCXfwzJ7GgUc-4" value="set counter 20" style="shape=parallelogram;perimeter=parallelogramPerimeter;whiteSpace=wrap;html=1;fixedSize=1;" vertex="1" parent="1">
          <mxGeometry x="354" y="120" width="146" height="60" as="geometry" />
        </mxCell>
        <mxCell id="kuNX_iD7RCXfwzJ7GgUc-6" value="" style="endArrow=classic;html=1;rounded=0;entryX=0.5;entryY=0;entryDx=0;entryDy=0;entryPerimeter=0;" edge="1" parent="1" source="kuNX_iD7RCXfwzJ7GgUc-3" target="kuNX_iD7RCXfwzJ7GgUc-4">
          <mxGeometry width="50" height="50" relative="1" as="geometry">
            <mxPoint x="430" y="140" as="sourcePoint" />
            <mxPoint x="427" y="180" as="targetPoint" />
          </mxGeometry>
        </mxCell>
        <mxCell id="kuNX_iD7RCXfwzJ7GgUc-8" value="" style="endArrow=classic;html=1;rounded=0;entryX=0.5;entryY=0;entryDx=0;entryDy=0;exitX=0.5;exitY=1;exitDx=0;exitDy=0;" edge="1" parent="1" source="kuNX_iD7RCXfwzJ7GgUc-21" target="kuNX_iD7RCXfwzJ7GgUc-9">
          <mxGeometry width="50" height="50" relative="1" as="geometry">
            <mxPoint x="422" y="250" as="sourcePoint" />
            <mxPoint x="418" y="320" as="targetPoint" />
          </mxGeometry>
        </mxCell>
        <mxCell id="kuNX_iD7RCXfwzJ7GgUc-9" value="Is counter &amp;gt; 0?" style="rhombus;whiteSpace=wrap;html=1;" vertex="1" parent="1">
          <mxGeometry x="379" y="320" width="96" height="90" as="geometry" />
        </mxCell>
        <mxCell id="kuNX_iD7RCXfwzJ7GgUc-10" value="Lanjut ke langkah 6" style="rounded=0;whiteSpace=wrap;html=1;" vertex="1" parent="1">
          <mxGeometry x="367" y="460" width="120" height="60" as="geometry" />
        </mxCell>
        <mxCell id="kuNX_iD7RCXfwzJ7GgUc-11" value="" style="endArrow=classic;html=1;rounded=0;exitX=0.5;exitY=1;exitDx=0;exitDy=0;entryX=0.5;entryY=0;entryDx=0;entryDy=0;" edge="1" parent="1" source="kuNX_iD7RCXfwzJ7GgUc-9" target="kuNX_iD7RCXfwzJ7GgUc-10">
          <mxGeometry width="50" height="50" relative="1" as="geometry">
            <mxPoint x="520" y="420" as="sourcePoint" />
            <mxPoint x="570" y="370" as="targetPoint" />
          </mxGeometry>
        </mxCell>
        <mxCell id="kuNX_iD7RCXfwzJ7GgUc-12" value="YA" style="text;html=1;align=center;verticalAlign=middle;resizable=0;points=[];autosize=1;strokeColor=none;fillColor=none;" vertex="1" parent="1">
          <mxGeometry x="420" y="418" width="40" height="30" as="geometry" />
        </mxCell>
        <mxCell id="kuNX_iD7RCXfwzJ7GgUc-13" value="lanjut ke langkah 5" style="rounded=0;whiteSpace=wrap;html=1;" vertex="1" parent="1">
          <mxGeometry x="540" y="335" width="120" height="60" as="geometry" />
        </mxCell>
        <mxCell id="kuNX_iD7RCXfwzJ7GgUc-14" value="" style="endArrow=classic;html=1;rounded=0;exitX=1;exitY=0.5;exitDx=0;exitDy=0;entryX=0;entryY=0.5;entryDx=0;entryDy=0;" edge="1" parent="1" source="kuNX_iD7RCXfwzJ7GgUc-9" target="kuNX_iD7RCXfwzJ7GgUc-13">
          <mxGeometry width="50" height="50" relative="1" as="geometry">
            <mxPoint x="520" y="420" as="sourcePoint" />
            <mxPoint x="570" y="370" as="targetPoint" />
          </mxGeometry>
        </mxCell>
        <mxCell id="kuNX_iD7RCXfwzJ7GgUc-15" value="TIDAK" style="text;html=1;align=center;verticalAlign=middle;resizable=0;points=[];autosize=1;strokeColor=none;fillColor=none;" vertex="1" parent="1">
          <mxGeometry x="470" y="358" width="60" height="30" as="geometry" />
        </mxCell>
        <mxCell id="kuNX_iD7RCXfwzJ7GgUc-17" value="Kurangi 1 dari counter, lalu kembali ke langkah 3" style="rounded=0;whiteSpace=wrap;html=1;" vertex="1" parent="1">
          <mxGeometry x="367" y="570" width="120" height="60" as="geometry" />
        </mxCell>
        <mxCell id="kuNX_iD7RCXfwzJ7GgUc-18" value="" style="endArrow=classic;html=1;rounded=0;exitX=0.5;exitY=1;exitDx=0;exitDy=0;entryX=0.5;entryY=0;entryDx=0;entryDy=0;" edge="1" parent="1" source="kuNX_iD7RCXfwzJ7GgUc-10" target="kuNX_iD7RCXfwzJ7GgUc-17">
          <mxGeometry width="50" height="50" relative="1" as="geometry">
            <mxPoint x="430" y="520" as="sourcePoint" />
            <mxPoint x="570" y="510" as="targetPoint" />
          </mxGeometry>
        </mxCell>
        <mxCell id="kuNX_iD7RCXfwzJ7GgUc-19" value="STOP" style="rounded=1;whiteSpace=wrap;html=1;" vertex="1" parent="1">
          <mxGeometry x="367" y="690" width="120" height="60" as="geometry" />
        </mxCell>
        <mxCell id="kuNX_iD7RCXfwzJ7GgUc-20" value="" style="endArrow=classic;html=1;rounded=0;exitX=0.5;exitY=1;exitDx=0;exitDy=0;entryX=0.5;entryY=0;entryDx=0;entryDy=0;" edge="1" parent="1" source="kuNX_iD7RCXfwzJ7GgUc-17" target="kuNX_iD7RCXfwzJ7GgUc-19">
          <mxGeometry width="50" height="50" relative="1" as="geometry">
            <mxPoint x="470" y="680" as="sourcePoint" />
            <mxPoint x="520" y="630" as="targetPoint" />
          </mxGeometry>
        </mxCell>
        <mxCell id="kuNX_iD7RCXfwzJ7GgUc-21" value="Show value of counter" style="rounded=0;whiteSpace=wrap;html=1;" vertex="1" parent="1">
          <mxGeometry x="367" y="220" width="120" height="60" as="geometry" />
        </mxCell>
        <mxCell id="kuNX_iD7RCXfwzJ7GgUc-22" value="" style="endArrow=classic;html=1;rounded=0;exitX=0.5;exitY=1;exitDx=0;exitDy=0;entryX=0.5;entryY=0;entryDx=0;entryDy=0;" edge="1" parent="1" source="kuNX_iD7RCXfwzJ7GgUc-4" target="kuNX_iD7RCXfwzJ7GgUc-21">
          <mxGeometry width="50" height="50" relative="1" as="geometry">
            <mxPoint x="470" y="280" as="sourcePoint" />
            <mxPoint x="520" y="230" as="targetPoint" />
          </mxGeometry>
        </mxCell>
      </root>
    </mxGraphModel>
  </diagram>
</mxfile>
